<?xml version="1.0" encoding="UTF-8" standalone="no"?>
<svg
   id="svg"
   version="1.1"
   width="400"
   height="400"
   viewBox="0, 0, 400,400"
   sodipodi:docname="openea_svg - Copie.svg"
   inkscape:version="1.2.2 (732a01da63, 2022-12-09)"
   xmlns:inkscape="http://www.inkscape.org/namespaces/inkscape"
   xmlns:sodipodi="http://sodipodi.sourceforge.net/DTD/sodipodi-0.dtd"
   xmlns="http://www.w3.org/2000/svg"
   xmlns:svg="http://www.w3.org/2000/svg">
  <defs
     id="defs15" />
  <sodipodi:namedview
     id="namedview13"
     pagecolor="#ffffff00"
     bordercolor="#999999"
     borderopacity="1"
     inkscape:showpageshadow="0"
     inkscape:pageopacity="0"
     inkscape:pagecheckerboard="0"
     inkscape:deskcolor="#d1d1d1"
     showgrid="false"
     inkscape:zoom="1.2925"
     inkscape:cx="200"
     inkscape:cy="200.38685"
     inkscape:window-width="1366"
     inkscape:window-height="697"
     inkscape:window-x="-8"
     inkscape:window-y="-8"
     inkscape:window-maximized="1"
     inkscape:current-layer="svg" />
  <g
     id="svgg">
    <path
       id="path0"
       d="m 186.652,15.617 c -7.425,0.315 -10.24,0.631 -21.652,2.432 -4.022,0.634 -9.715,1.83 -13,2.729 -0.77,0.211 -2.48,0.676 -3.8,1.032 -3.5,0.945 -10.211,3.035 -11.6,3.612 -0.66,0.274 -2.01,0.769 -3,1.1 -2.036,0.681 -3.639,1.315 -7.8,3.085 -3.655,1.555 -4.759,2.071 -10.4,4.866 -6.846,3.391 -9.425,4.773 -10.123,5.427 -0.294,0.275 -0.791,0.5 -1.106,0.5 -0.314,0 -0.571,0.159 -0.571,0.353 0,0.195 -0.315,0.463 -0.7,0.596 -0.385,0.133 -1.24,0.602 -1.9,1.042 -0.66,0.44 -1.47,0.937 -1.8,1.104 -1.123,0.57 -4.199,2.704 -4.333,3.005 -0.074,0.165 -0.302,0.3 -0.509,0.3 -0.341,0 -9.489,6.589 -9.958,7.172 -0.11,0.137 -1.007,0.874 -1.993,1.638 -0.986,0.765 -2.077,1.66 -2.425,1.99 -0.348,0.33 -1.44,1.264 -2.428,2.075 -2.286,1.878 -8.304,7.538 -10.707,10.071 -1.016,1.07 -2.699,2.844 -3.74,3.942 -1.042,1.097 -2.572,2.82 -3.4,3.828 -0.829,1.009 -1.777,2.118 -2.107,2.466 -0.33,0.348 -1.225,1.439 -1.99,2.425 -0.764,0.986 -1.501,1.883 -1.638,1.993 -0.583,0.469 -7.172,9.617 -7.172,9.958 0,0.207 -0.135,0.435 -0.3,0.509 -0.301,0.134 -2.435,3.21 -3.005,4.333 -0.167,0.33 -0.664,1.14 -1.104,1.8 -0.44,0.66 -0.909,1.515 -1.042,1.9 -0.133,0.385 -0.401,0.7 -0.596,0.7 -0.194,0 -0.353,0.257 -0.353,0.571 0,0.315 -0.225,0.81 -0.5,1.1 -0.275,0.291 -0.919,1.339 -1.431,2.329 -0.511,0.99 -1.728,3.24 -2.704,5 -0.975,1.76 -1.885,3.47 -2.02,3.8 -0.136,0.33 -0.653,1.5 -1.15,2.6 -1.45,3.209 -3.445,7.799 -4.172,9.6 -0.178,0.44 -0.543,1.34 -0.811,2 -0.268,0.66 -0.759,2.01 -1.09,3 -0.331,0.99 -0.826,2.34 -1.1,3 -0.577,1.389 -2.667,8.1 -3.612,11.6 -0.356,1.32 -0.821,3.03 -1.032,3.8 -0.616,2.25 -1.229,4.907 -1.43,6.2 -0.103,0.66 -0.439,2.37 -0.748,3.8 -1.149,5.324 -1.644,8.902 -2.626,19 -0.555,5.706 -0.534,25.595 0.032,31 0.242,2.31 0.585,5.64 0.762,7.4 0.177,1.76 0.54,4.37 0.806,5.8 0.267,1.43 0.753,4.04 1.08,5.8 0.327,1.76 0.749,3.74 0.938,4.4 0.188,0.66 0.462,1.83 0.608,2.6 0.146,0.77 0.419,1.94 0.607,2.6 0.188,0.66 0.646,2.37 1.018,3.8 0.372,1.43 0.904,3.32 1.183,4.2 0.279,0.88 0.834,2.68 1.232,4 0.398,1.32 0.867,2.571 1.042,2.78 0.175,0.209 0.319,0.659 0.32,1 0.002,0.341 0.272,1.136 0.6,1.766 0.329,0.63 0.598,1.412 0.598,1.738 0,0.326 0.251,1.07 0.557,1.654 0.306,0.584 0.871,1.872 1.254,2.862 3.468,8.949 14.234,29.484 16.568,31.6 0.382,0.346 2.821,4.013 2.821,4.24 0,0.12 0.225,0.452 0.5,0.74 0.275,0.287 0.77,0.926 1.1,1.42 0.33,0.494 0.825,1.133 1.1,1.42 0.275,0.288 0.5,0.607 0.5,0.71 0,0.103 0.436,0.701 0.969,1.329 0.533,0.627 2.459,3.009 4.28,5.292 3.342,4.188 6.764,7.975 11.576,12.811 4.735,4.759 7.846,7.586 13.908,12.638 0.527,0.44 1.524,1.292 2.213,1.894 0.69,0.601 1.376,1.096 1.525,1.1 0.15,0.003 0.51,0.234 0.8,0.512 1.817,1.738 7.977,5.989 14.729,10.165 8.768,5.422 17.17,9.685 26.8,13.599 0.77,0.313 1.713,0.74 2.095,0.949 0.382,0.21 0.922,0.382 1.2,0.383 0.278,0.002 0.955,0.236 1.505,0.52 0.55,0.285 3.7,1.38 7,2.433 3.3,1.054 6.313,2.08 6.695,2.28 0.382,0.201 1.05,0.365 1.486,0.365 0.435,0 1.562,0.245 2.505,0.544 0.943,0.299 3.154,0.857 4.914,1.239 1.76,0.381 3.83,0.858 4.6,1.057 8.989,2.335 31.734,4.22 42.6,3.532 15.272,-0.967 18.577,-1.374 32,-3.94 0.88,-0.169 2.32,-0.51 3.2,-0.758 0.88,-0.249 3.04,-0.808 4.8,-1.243 4.175,-1.032 6.216,-1.595 7.2,-1.988 0.44,-0.176 2.6,-0.9 4.8,-1.61 2.2,-0.709 4.36,-1.452 4.8,-1.65 0.44,-0.199 1.79,-0.731 3,-1.183 1.21,-0.452 2.65,-1.022 3.2,-1.267 0.55,-0.245 1.54,-0.679 2.2,-0.965 3.032,-1.315 6.959,-3.124 8.6,-3.963 4.088,-2.09 8.687,-4.548 10,-5.345 0.77,-0.468 1.76,-1.035 2.2,-1.261 0.44,-0.226 1.34,-0.766 2,-1.201 0.66,-0.434 1.47,-0.913 1.8,-1.064 0.33,-0.152 0.69,-0.385 0.8,-0.518 0.11,-0.133 1.19,-0.86 2.4,-1.615 3.278,-2.045 12.13,-8.543 16,-11.745 6.831,-5.652 18.06,-16.733 22.6,-22.302 0.44,-0.54 1.628,-1.965 2.641,-3.168 1.013,-1.202 3.662,-4.706 5.888,-7.786 2.226,-3.08 4.187,-5.79 4.359,-6.022 0.778,-1.051 1.354,-2.034 1.57,-2.678 0.13,-0.385 0.373,-0.7 0.542,-0.7 0.169,0 0.416,-0.315 0.549,-0.7 0.133,-0.385 0.601,-1.24 1.04,-1.9 0.44,-0.66 0.985,-1.56 1.212,-2 0.227,-0.44 0.947,-1.7 1.601,-2.8 0.653,-1.1 1.647,-2.9 2.209,-4 0.562,-1.1 1.623,-3.17 2.358,-4.6 1.212,-2.361 3.045,-6.277 4.399,-9.4 0.286,-0.66 0.72,-1.65 0.965,-2.2 0.245,-0.55 0.815,-1.99 1.267,-3.2 0.452,-1.21 0.984,-2.56 1.183,-3 0.198,-0.44 0.941,-2.6 1.651,-4.8 0.71,-2.2 1.383,-4.27 1.496,-4.6 0.967,-2.827 2.546,-8.929 4.502,-17.4 2.525,-10.933 4.217,-31.368 3.534,-42.665 -0.827,-13.681 -2.091,-24.412 -3.526,-29.935 -0.199,-0.77 -0.676,-2.84 -1.057,-4.6 -0.382,-1.76 -0.94,-3.971 -1.239,-4.914 -0.299,-0.943 -0.544,-2.07 -0.544,-2.505 0,-0.436 -0.166,-1.104 -0.369,-1.486 -0.202,-0.382 -0.938,-2.585 -1.635,-4.895 -0.697,-2.31 -1.522,-4.875 -1.832,-5.7 -1.822,-4.845 -2.203,-5.818 -3.96,-10.1 -1.777,-4.331 -7.787,-16.586 -8.498,-17.329 -0.278,-0.29 -0.506,-0.69 -0.506,-0.889 0,-1.003 -10.148,-16.575 -13.671,-20.978 -0.178,-0.222 -0.97,-1.214 -1.76,-2.204 C 328.657,71.98 318.06,61.506 306.8,53.001 c -1.43,-1.08 -2.69,-2.064 -2.8,-2.186 -0.11,-0.122 -0.874,-0.671 -1.697,-1.219 -0.824,-0.548 -1.499,-1.131 -1.5,-1.296 -0.002,-0.165 -0.191,-0.3 -0.42,-0.3 -0.229,0 -1.354,-0.684 -2.5,-1.521 -7.488,-5.467 -23.722,-14.134 -33.483,-17.875 -0.99,-0.38 -2.278,-0.941 -2.862,-1.247 -0.584,-0.306 -1.328,-0.557 -1.654,-0.557 -0.326,0 -1.108,-0.269 -1.738,-0.598 -0.63,-0.328 -1.425,-0.598 -1.766,-0.6 -0.341,-0.001 -0.791,-0.145 -1,-0.32 -0.209,-0.175 -1.46,-0.644 -2.78,-1.042 -1.32,-0.398 -3.12,-0.953 -4,-1.232 -0.88,-0.279 -2.77,-0.811 -4.2,-1.183 -1.43,-0.372 -3.14,-0.83 -3.8,-1.018 -0.66,-0.188 -1.83,-0.461 -2.6,-0.607 -0.77,-0.146 -1.94,-0.42 -2.6,-0.608 -0.66,-0.189 -2.64,-0.611 -4.4,-0.938 -1.76,-0.327 -4.37,-0.813 -5.8,-1.08 -8.762,-1.632 -25.804,-2.497 -38.548,-1.957 M 183.6,33.038 c 0,0.571 -0.249,1.516 -0.554,2.1 -0.304,0.584 -0.83,1.692 -1.169,2.462 -0.339,0.77 -1.08,2.44 -1.647,3.711 -0.566,1.271 -1.03,2.395 -1.03,2.499 0,0.103 -0.554,1.403 -1.232,2.889 -0.678,1.486 -1.388,3.061 -1.577,3.501 -0.19,0.44 -0.805,1.839 -1.367,3.11 -0.562,1.27 -1.493,3.43 -2.069,4.8 -0.576,1.369 -1.373,3.21 -1.771,4.09 -1.603,3.546 -2.832,6.338 -3.784,8.6 -0.551,1.309 -1.462,3.42 -2.024,4.69 -1.437,3.25 -1.647,3.731 -2.31,5.31 -0.323,0.77 -1.075,2.48 -1.671,3.8 -0.595,1.32 -1.346,3.03 -1.669,3.8 -0.322,0.77 -0.842,1.985 -1.156,2.7 -0.853,1.945 -1.637,3.78 -2.093,4.9 -0.224,0.55 -0.938,2.17 -1.587,3.6 -0.65,1.43 -1.589,3.59 -2.088,4.8 -0.498,1.21 -1.418,3.319 -2.044,4.687 -0.625,1.368 -1.592,3.568 -2.148,4.89 -0.557,1.322 -1.472,3.443 -2.034,4.713 -0.562,1.271 -1.18,2.67 -1.373,3.11 -0.194,0.44 -0.904,2.028 -1.578,3.528 -0.674,1.5 -1.225,2.793 -1.225,2.872 0,0.079 -0.551,1.372 -1.225,2.872 -1.434,3.191 -1.695,3.788 -2.591,5.928 -1.098,2.62 -1.649,3.882 -2.709,6.2 -0.553,1.21 -1.304,2.92 -1.67,3.8 -0.822,1.98 -1.511,3.582 -2.322,5.4 -0.343,0.77 -0.887,2.03 -1.209,2.8 -0.323,0.77 -1.056,2.407 -1.63,3.639 -0.574,1.231 -1.044,2.343 -1.044,2.472 0,0.226 -1.479,3.594 -3.376,7.689 -0.509,1.1 -1.332,2.99 -1.828,4.2 -0.496,1.21 -1.338,3.19 -1.871,4.4 -0.534,1.21 -1.129,2.56 -1.322,3 -0.194,0.44 -0.904,2.028 -1.578,3.528 -0.674,1.5 -1.225,2.793 -1.225,2.872 0,0.138 -1.368,3.212 -3.432,7.711 -0.532,1.161 -0.968,2.271 -0.968,2.468 0,0.196 -0.254,0.866 -0.565,1.489 -0.783,1.571 -2.434,5.217 -3.23,7.132 -1.164,2.802 -1.671,3.947 -2.751,6.206 -0.58,1.213 -1.054,2.337 -1.054,2.499 0,0.161 -0.558,1.508 -1.239,2.994 -0.682,1.486 -1.505,3.331 -1.83,4.101 -0.324,0.77 -0.833,1.94 -1.13,2.6 -1.791,3.978 -2.601,5.841 -2.601,5.983 0,0.089 -0.555,1.389 -1.232,2.889 -0.678,1.5 -1.488,3.295 -1.8,3.988 -0.313,0.694 -0.568,1.459 -0.568,1.7 0,0.242 -0.18,0.44 -0.4,0.44 -0.22,0 -0.4,0.248 -0.4,0.55 0,0.303 -0.467,1.608 -1.037,2.9 -1.377,3.118 -2.512,5.724 -3.027,6.95 -0.636,1.513 -1.354,3.15 -2.545,5.8 -0.593,1.32 -1.342,3.03 -1.665,3.8 -0.322,0.77 -0.811,1.94 -1.088,2.6 -0.276,0.66 -0.827,1.92 -1.224,2.8 -0.397,0.88 -0.949,2.14 -1.227,2.8 -0.279,0.66 -0.974,2.193 -1.547,3.406 -0.572,1.213 -1.04,2.337 -1.04,2.499 0,0.161 -0.554,1.508 -1.232,2.994 -0.678,1.486 -1.388,3.061 -1.578,3.501 -1.634,3.779 -2.206,5.067 -3.036,6.839 -0.525,1.121 -0.954,2.143 -0.954,2.272 0,0.128 -0.555,1.461 -1.232,2.961 -0.678,1.5 -1.497,3.358 -1.819,4.128 -1.421,3.389 -1.877,3.472 -3.935,0.711 -0.866,-1.161 -1.719,-2.291 -1.895,-2.511 -1.331,-1.662 -3.919,-5.471 -3.919,-5.768 0,-0.201 -0.149,-0.425 -0.332,-0.499 -1.131,-0.455 -10.364,-16.974 -13.487,-24.133 -0.288,-0.66 -0.932,-2.1 -1.431,-3.2 -1.112,-2.452 -1.582,-3.66 -2.721,-7 -0.487,-1.43 -1.044,-2.96 -1.237,-3.4 -0.323,-0.736 -1.763,-5.273 -3.347,-10.546 -0.355,-1.18 -0.645,-2.497 -0.645,-2.926 0,-0.429 -0.174,-1.105 -0.386,-1.502 -0.213,-0.397 -0.565,-1.691 -0.783,-2.874 -0.219,-1.184 -0.678,-3.502 -1.022,-5.152 -0.343,-1.65 -0.784,-4.17 -0.978,-5.6 -0.195,-1.43 -0.591,-3.95 -0.88,-5.6 -0.847,-4.839 -0.74,-34.926 0.143,-40.4 0.373,-2.31 0.756,-4.74 0.851,-5.4 0.299,-2.089 1.657,-8.691 3.002,-14.6 0.175,-0.77 0.516,-2.03 0.758,-2.8 0.242,-0.77 0.747,-2.48 1.124,-3.8 0.814,-2.852 0.778,-2.742 2.251,-6.8 0.639,-1.76 1.258,-3.56 1.377,-4 0.118,-0.44 0.449,-1.34 0.737,-2 0.287,-0.66 0.705,-1.65 0.929,-2.2 0.224,-0.55 0.963,-2.184 1.642,-3.632 0.679,-1.447 1.235,-2.766 1.235,-2.931 0,-0.368 2.977,-6.291 4.944,-9.837 0.794,-1.43 1.569,-2.87 1.723,-3.2 0.448,-0.958 2.668,-4.58 2.942,-4.8 0.137,-0.11 0.373,-0.47 0.525,-0.8 0.151,-0.33 0.631,-1.14 1.066,-1.8 0.435,-0.66 0.918,-1.47 1.073,-1.8 0.155,-0.33 0.533,-0.854 0.84,-1.164 0.307,-0.31 1.005,-1.273 1.553,-2.14 0.997,-1.58 3.768,-5.397 5.005,-6.896 0.364,-0.44 1.995,-2.42 3.626,-4.4 C 75.8,83.19 84.336,74.71 91.6,68.838 c 1.43,-1.156 2.96,-2.402 3.4,-2.77 0.825,-0.689 6.214,-4.603 7.802,-5.668 0.493,-0.33 1.107,-0.78 1.364,-1 0.797,-0.682 2.002,-1.413 2.734,-1.658 0.385,-0.13 0.7,-0.382 0.7,-0.562 0,-0.179 0.405,-0.452 0.9,-0.607 0.495,-0.154 0.99,-0.401 1.1,-0.547 0.212,-0.282 3.784,-2.483 4.8,-2.959 0.33,-0.154 1.68,-0.877 3,-1.607 3.395,-1.878 6.84,-3.629 9.4,-4.779 1.21,-0.543 3.28,-1.481 4.6,-2.083 1.32,-0.603 2.85,-1.24 3.4,-1.417 0.55,-0.177 1.99,-0.703 3.2,-1.17 1.21,-0.467 3.28,-1.213 4.6,-1.658 1.32,-0.446 2.76,-0.952 3.2,-1.126 0.44,-0.173 1.88,-0.623 3.2,-0.999 1.32,-0.376 3.03,-0.881 3.8,-1.123 0.77,-0.242 2.03,-0.583 2.8,-0.758 0.77,-0.175 2.66,-0.605 4.2,-0.955 4.245,-0.965 8.471,-1.75 11.8,-2.19 1.65,-0.218 3.81,-0.558 4.8,-0.756 4.105,-0.818 7.2,-0.563 7.2,0.592 m 34.183,-0.415 c 8.522,1.323 13.558,2.295 16.692,3.222 1.031,0.305 2.136,0.555 2.454,0.555 0.319,0 1.455,0.265 2.525,0.588 8.1,2.45 10.422,3.183 10.946,3.456 0.33,0.172 1.688,0.67 3.017,1.105 2.74,0.898 3.864,1.338 6.983,2.731 1.21,0.541 2.74,1.215 3.4,1.498 2.078,0.891 9.498,4.581 12,5.968 1.32,0.732 3.03,1.673 3.8,2.092 0.77,0.419 1.49,0.852 1.6,0.962 0.11,0.11 0.56,0.412 1,0.672 6.013,3.545 15.685,10.473 20.085,14.385 0.706,0.629 1.867,1.593 2.579,2.143 1.511,1.168 12.109,11.684 14.736,14.622 2.831,3.167 4,4.556 4,4.754 0,0.1 0.469,0.687 1.042,1.303 0.574,0.617 2.107,2.561 3.408,4.321 1.301,1.76 2.509,3.383 2.686,3.606 0.94,1.192 6.629,9.972 7.122,10.994 0.303,0.628 3.081,5.362 3.754,6.4 0.215,0.33 0.555,0.979 0.757,1.441 0.201,0.463 1.519,3.253 2.927,6.2 1.408,2.948 2.884,6.169 3.28,7.159 0.396,0.99 0.877,2.16 1.068,2.6 1.123,2.58 3.212,8.626 4.561,13.2 0.389,1.32 0.852,2.85 1.029,3.4 0.447,1.388 1.401,5.266 2.115,8.6 0.331,1.54 0.795,3.7 1.033,4.8 2.349,10.864 3.575,33.588 2.402,44.523 -1.179,10.997 -3.108,22.282 -4.647,27.191 -0.295,0.943 -0.537,2.057 -0.537,2.476 0,0.42 -0.18,0.874 -0.4,1.01 -0.22,0.136 -0.4,0.588 -0.4,1.004 0,0.835 -2.173,7.865 -3.047,9.856 -0.304,0.694 -0.553,1.538 -0.553,1.877 0,0.339 -0.18,0.727 -0.4,0.863 -0.22,0.136 -0.4,0.516 -0.4,0.846 0,0.523 -0.304,1.309 -1.996,5.154 -0.193,0.44 -0.858,1.964 -1.478,3.386 -2.056,4.72 -6.923,14.124 -7.426,14.347 -0.165,0.074 -0.3,0.316 -0.3,0.539 0,0.866 -6.926,11.517 -10.663,16.398 -0.955,1.248 -1.737,2.463 -1.737,2.7 0,0.236 -0.165,0.43 -0.367,0.43 -0.202,0 -0.65,0.108 -0.995,0.241 -0.438,0.168 -0.752,-0.104 -1.041,-0.9 -0.227,-0.628 -0.609,-1.591 -0.847,-2.141 -0.239,-0.55 -0.685,-1.585 -0.992,-2.3 -0.307,-0.715 -0.817,-1.885 -1.133,-2.6 -0.317,-0.715 -0.947,-2.155 -1.4,-3.2 -0.454,-1.045 -1.161,-2.665 -1.572,-3.6 -0.411,-0.935 -1.054,-2.42 -1.429,-3.3 -0.376,-0.88 -0.926,-2.14 -1.224,-2.8 -0.297,-0.66 -0.804,-1.83 -1.126,-2.6 -0.323,-0.77 -1.072,-2.48 -1.665,-3.8 -1.331,-2.963 -2.004,-4.504 -2.532,-5.8 -0.224,-0.55 -0.963,-2.184 -1.642,-3.632 -0.679,-1.447 -1.235,-2.739 -1.235,-2.872 0,-0.132 -0.555,-1.468 -1.232,-2.968 -2.14,-4.735 -2.301,-5.101 -3.768,-8.528 -0.79,-1.845 -1.684,-3.905 -1.988,-4.577 -1.454,-3.219 -2.699,-6.053 -3.612,-8.223 -0.551,-1.309 -1.462,-3.42 -2.024,-4.69 -0.562,-1.271 -1.177,-2.67 -1.367,-3.11 -0.189,-0.44 -0.899,-2.015 -1.577,-3.501 -0.678,-1.486 -1.232,-2.971 -1.232,-3.3 0,-0.329 -0.18,-0.599 -0.4,-0.599 -0.22,0 -0.4,-0.192 -0.4,-0.426 0,-0.234 -0.426,-1.359 -0.947,-2.5 -0.521,-1.141 -1.353,-3.064 -1.849,-4.274 -0.496,-1.21 -1.348,-3.19 -1.893,-4.4 -0.546,-1.21 -1.268,-2.83 -1.605,-3.6 -0.611,-1.394 -0.912,-2.085 -2.481,-5.7 -0.454,-1.045 -1.167,-2.665 -1.585,-3.6 -0.419,-0.935 -1.068,-2.42 -1.444,-3.3 -0.891,-2.089 -1.575,-3.676 -2.326,-5.4 -0.336,-0.77 -0.874,-2.03 -1.196,-2.8 -0.323,-0.77 -1.074,-2.48 -1.669,-3.8 -0.596,-1.32 -1.353,-3.03 -1.684,-3.8 -0.33,-0.77 -0.942,-2.165 -1.361,-3.1 -0.418,-0.935 -1.131,-2.555 -1.585,-3.6 -2.033,-4.683 -1.694,-3.913 -4.145,-9.411 -0.566,-1.271 -1.03,-2.383 -1.03,-2.472 0,-0.089 -0.551,-1.389 -1.225,-2.889 -0.674,-1.5 -1.383,-3.088 -1.575,-3.528 -0.192,-0.44 -0.901,-2.028 -1.575,-3.528 -0.674,-1.5 -1.225,-2.793 -1.225,-2.872 0,-0.079 -0.555,-1.372 -1.232,-2.872 -2.14,-4.735 -2.301,-5.101 -3.768,-8.528 -0.79,-1.845 -1.684,-3.905 -1.988,-4.577 -1.454,-3.219 -2.699,-6.053 -3.612,-8.223 -0.551,-1.309 -1.462,-3.42 -2.024,-4.69 -0.562,-1.271 -1.177,-2.67 -1.367,-3.11 -0.189,-0.44 -0.899,-2.015 -1.577,-3.501 -0.678,-1.486 -1.232,-2.833 -1.232,-2.994 0,-0.162 -0.474,-1.286 -1.054,-2.499 -0.58,-1.213 -1.282,-2.746 -1.56,-3.406 -0.663,-1.572 -1.459,-3.377 -2.997,-6.8 -0.692,-1.54 -1.448,-3.25 -1.68,-3.8 -0.232,-0.55 -0.671,-1.582 -0.976,-2.294 -0.305,-0.712 -0.806,-1.882 -1.112,-2.6 -0.307,-0.718 -1.04,-2.386 -1.63,-3.706 -0.59,-1.32 -1.324,-2.985 -1.631,-3.7 -0.308,-0.715 -0.817,-1.885 -1.13,-2.6 -0.314,-0.715 -0.872,-2.02 -1.24,-2.9 -0.368,-0.88 -1.011,-2.365 -1.43,-3.3 -0.913,-2.041 -2.302,-5.195 -2.774,-6.3 -0.77,-1.8 -2.135,-4.931 -3.053,-7 -0.936,-2.112 -1.517,-3.438 -2.454,-5.6 -0.238,-0.55 -0.893,-2.039 -1.455,-3.31 -0.562,-1.27 -1.473,-3.381 -2.024,-4.69 -1.573,-3.737 -2.994,-6.935 -3.429,-7.716 -0.929,-1.67 1.699,-1.933 8.612,-0.861 m -19.427,14.044 c 0.511,1.283 1.378,3.323 1.927,4.533 1.033,2.277 1.853,4.132 2.739,6.2 0.283,0.66 0.997,2.28 1.587,3.6 0.59,1.32 1.293,2.94 1.564,3.6 0.27,0.66 0.816,1.92 1.213,2.8 0.722,1.601 1.373,3.124 2.137,5 0.224,0.55 0.98,2.26 1.679,3.8 1.29,2.838 1.975,4.392 2.733,6.2 0.231,0.55 0.879,2.039 1.441,3.31 0.562,1.27 1.493,3.43 2.069,4.8 1.031,2.452 1.271,2.995 3.722,8.418 0.678,1.5 1.233,2.793 1.233,2.872 0,0.079 0.551,1.372 1.225,2.872 0.674,1.5 1.384,3.088 1.578,3.528 0.193,0.44 0.811,1.839 1.373,3.11 0.562,1.27 1.473,3.381 2.024,4.69 0.551,1.309 1.462,3.42 2.024,4.69 0.562,1.271 1.217,2.76 1.455,3.31 0.238,0.55 0.667,1.54 0.953,2.2 0.286,0.66 1.087,2.46 1.779,4 0.692,1.54 1.442,3.25 1.666,3.8 0.746,1.831 2.01,4.744 3.732,8.6 1.375,3.079 2.173,4.9 2.803,6.4 0.277,0.66 0.693,1.65 0.924,2.2 0.723,1.721 2.115,4.911 3.142,7.2 0.543,1.21 1.142,2.56 1.331,3 0.19,0.44 0.805,1.839 1.367,3.11 0.562,1.27 1.473,3.381 2.024,4.69 0.859,2.042 1.723,4.022 3.401,7.8 0.195,0.44 0.749,1.7 1.231,2.8 0.481,1.1 1.314,2.99 1.851,4.2 0.537,1.21 1.245,2.83 1.574,3.6 0.328,0.77 0.783,1.781 1.01,2.247 1.074,2.208 0.66,2.362 -6.078,2.255 -24.424,-0.389 -77.542,-0.9 -93.789,-0.902 -28.676,-0.005 -29.576,-0.091 -28.247,-2.705 0.195,-0.382 0.545,-1.145 0.778,-1.695 0.858,-2.019 2.186,-5.056 3.147,-7.2 0.543,-1.21 1.14,-2.56 1.327,-3 1.272,-2.986 1.646,-3.849 2.564,-5.91 0.566,-1.27 1.5,-3.43 2.076,-4.8 1.031,-2.452 1.271,-2.995 3.722,-8.418 0.678,-1.5 1.233,-2.793 1.233,-2.872 0,-0.079 0.551,-1.372 1.225,-2.872 0.674,-1.5 1.383,-3.088 1.575,-3.528 0.192,-0.44 0.901,-2.028 1.575,-3.528 0.674,-1.5 1.225,-2.836 1.225,-2.968 0,-0.133 0.556,-1.425 1.235,-2.872 0.679,-1.448 1.424,-3.082 1.656,-3.632 0.232,-0.55 0.671,-1.582 0.976,-2.294 0.305,-0.712 0.802,-1.882 1.103,-2.6 0.302,-0.718 1.031,-2.386 1.621,-3.706 0.59,-1.32 1.323,-2.988 1.63,-3.706 1.401,-3.282 1.736,-4.031 2.725,-6.1 0.58,-1.213 1.054,-2.337 1.054,-2.499 0,-0.161 0.554,-1.508 1.232,-2.994 0.678,-1.486 1.386,-3.061 1.573,-3.501 0.188,-0.44 0.648,-1.52 1.022,-2.4 0.375,-0.88 1.197,-2.694 1.827,-4.032 0.63,-1.337 1.146,-2.539 1.146,-2.672 0,-0.132 0.551,-1.468 1.225,-2.968 1.398,-3.111 1.69,-3.779 2.509,-5.728 0.323,-0.77 1.035,-2.39 1.581,-3.6 0.547,-1.21 1.384,-3.1 1.861,-4.2 1.143,-2.635 1.356,-3.116 2.799,-6.328 0.674,-1.5 1.225,-2.793 1.225,-2.872 0,-0.079 0.551,-1.372 1.225,-2.872 0.674,-1.5 1.413,-3.178 1.642,-3.728 0.663,-1.589 1.386,-3.318 1.842,-4.4 0.232,-0.55 0.958,-2.17 1.615,-3.6 0.657,-1.43 1.496,-3.32 1.865,-4.2 0.641,-1.531 0.92,-2.175 2.368,-5.46 0.354,-0.804 0.643,-1.659 0.643,-1.9 0,-0.242 0.18,-0.44 0.4,-0.44 0.22,0 0.4,-0.282 0.4,-0.626 0,-2.906 1.85,-2.382 3.156,0.893 M 171.8,206.629 c 60.789,0.404 96.658,1.058 97.012,1.771 0.357,0.716 2.24,4.908 2.966,6.6 0.283,0.66 0.79,1.83 1.126,2.6 0.336,0.77 0.795,1.85 1.019,2.4 0.224,0.55 0.938,2.17 1.587,3.6 0.65,1.43 1.589,3.59 2.088,4.8 0.95,2.303 2.241,5.201 3.849,8.639 0.524,1.121 0.953,2.151 0.953,2.289 0,0.137 0.436,1.2 0.968,2.361 2.064,4.499 3.432,7.573 3.432,7.711 0,0.079 0.551,1.372 1.225,2.872 0.674,1.5 1.384,3.088 1.578,3.528 0.193,0.44 0.811,1.839 1.373,3.11 0.562,1.27 1.493,3.43 2.069,4.8 1.031,2.452 1.271,2.995 3.722,8.418 0.678,1.5 1.233,2.793 1.233,2.872 0,0.079 0.551,1.372 1.225,2.872 0.674,1.5 1.383,3.088 1.575,3.528 0.192,0.44 0.901,2.028 1.575,3.528 0.674,1.5 1.225,2.793 1.225,2.872 0,0.079 0.551,1.372 1.225,2.872 0.674,1.5 1.38,3.088 1.568,3.528 0.189,0.44 0.897,2.015 1.575,3.501 0.678,1.486 1.232,2.778 1.232,2.872 0,0.217 2.308,5.396 2.818,6.322 0.21,0.382 0.382,0.907 0.382,1.168 0,0.261 0.246,0.758 0.546,1.106 1.858,2.147 -1.886,6.73 -11.805,14.455 -0.958,0.745 -1.831,1.467 -1.941,1.604 -1.017,1.264 -15.337,11.128 -19.175,13.209 -0.977,0.53 -1.967,1.107 -2.2,1.282 -1.529,1.148 -12.388,6.479 -18.025,8.847 -0.88,0.37 -1.913,0.844 -2.295,1.053 -0.382,0.21 -0.894,0.381 -1.139,0.381 -0.245,0 -1.012,0.246 -1.706,0.546 -2.281,0.987 -4.425,1.756 -6.86,2.46 -1.32,0.381 -2.707,0.848 -3.083,1.036 -0.375,0.189 -1.414,0.46 -2.308,0.603 -0.895,0.143 -1.723,0.416 -1.841,0.608 -0.119,0.191 -0.558,0.347 -0.978,0.347 -0.419,0 -1.533,0.242 -2.476,0.537 -2.955,0.927 -9.398,2.215 -17.314,3.462 -15.45,2.434 -40.06,1.883 -54.4,-1.217 -1.1,-0.238 -3.26,-0.702 -4.8,-1.033 -3.334,-0.714 -7.212,-1.668 -8.6,-2.115 -0.55,-0.177 -2.08,-0.64 -3.4,-1.029 -4.574,-1.349 -10.62,-3.438 -13.2,-4.561 -0.44,-0.191 -1.61,-0.672 -2.6,-1.068 -0.99,-0.396 -4.211,-1.872 -7.159,-3.28 -2.947,-1.408 -5.737,-2.726 -6.2,-2.927 -0.462,-0.202 -1.111,-0.542 -1.441,-0.757 -1.038,-0.673 -5.772,-3.451 -6.4,-3.754 -1.022,-0.493 -9.802,-6.182 -10.994,-7.122 -0.223,-0.177 -1.846,-1.385 -3.606,-2.686 -1.76,-1.301 -3.66,-2.789 -4.222,-3.308 -0.562,-0.518 -2.002,-1.696 -3.2,-2.618 -4.877,-3.752 -11.391,-10.585 -10.478,-10.991 0.29,-0.129 1.255,-2.054 2.272,-4.533 0.271,-0.66 0.773,-1.83 1.117,-2.6 1.639,-3.673 1.911,-4.352 1.911,-4.76 0,-0.242 0.18,-0.44 0.4,-0.44 0.22,0 0.4,-0.27 0.4,-0.599 0,-0.329 0.54,-1.742 1.2,-3.139 0.66,-1.397 1.2,-2.644 1.2,-2.772 0,-0.127 0.609,-1.55 1.353,-3.161 0.744,-1.611 1.825,-4.05 2.401,-5.419 0.576,-1.37 1.508,-3.53 2.07,-4.8 0.562,-1.271 1.18,-2.67 1.373,-3.11 0.194,-0.44 0.904,-2.028 1.578,-3.528 0.674,-1.5 1.225,-2.793 1.225,-2.872 0,-0.079 0.555,-1.372 1.233,-2.872 2.451,-5.423 2.691,-5.966 3.722,-8.418 0.576,-1.37 1.507,-3.53 2.069,-4.8 0.562,-1.271 1.217,-2.76 1.455,-3.31 0.238,-0.55 0.667,-1.54 0.953,-2.2 0.286,-0.66 1.087,-2.46 1.779,-4 0.692,-1.54 1.412,-3.16 1.599,-3.6 0.186,-0.44 0.891,-2.028 1.565,-3.528 0.674,-1.5 1.225,-2.793 1.225,-2.872 0,-0.079 0.551,-1.372 1.225,-2.872 0.674,-1.5 1.42,-3.178 1.656,-3.728 0.784,-1.82 1.464,-3.372 2.542,-5.8 0.585,-1.32 1.334,-3.03 1.664,-3.8 0.33,-0.77 0.855,-1.982 1.167,-2.694 0.312,-0.712 0.823,-1.882 1.136,-2.6 2.989,-6.873 2.136,-6.257 8.41,-6.064 2.64,0.082 21,0.256 40.8,0.387"
       stroke="none"
       fill="#ec2829"
       fill-rule="evenodd"
       style="display:inline" />
  </g>
</svg>
